<svg xmlns="http://www.w3.org/2000/svg" width="21.325" height="24" viewBox="0 0 21.325 24"><path d="M22.394,6a1.889,1.889,0,0,0-.652-.69L12.926.22a2.046,2.046,0,0,0-1.848,0L2.26,5.31a2.048,2.048,0,0,0-.923,1.6V17.09a1.892,1.892,0,0,0,.271.91,1.889,1.889,0,0,0,.652.69l8.816,5.09a2.052,2.052,0,0,0,1.848,0l8.816-5.09a2.044,2.044,0,0,0,.922-1.6V6.91A1.845,1.845,0,0,0,22.394,6ZM12,19.11A7.11,7.11,0,1,1,18.157,8.443l-3.076,1.78a3.556,3.556,0,1,0,0,3.554l3.078,1.78A7.135,7.135,0,0,1,12,19.11ZM19.11,12.4h-.79v.79h-.79V12.4h-.79v-.79h.79v-.79h.79v.79h.79Zm2.962,0h-.79v.79h-.79V12.4H19.7v-.79h.79v-.79h.79v.79h.79Z" transform="translate(-1.337 0)" fill="#dadada"/></svg>