<svg xmlns="http://www.w3.org/2000/svg" width="17.799" height="24" viewBox="0 0 17.799 24"><g transform="translate(-3.1 0)"><path d="M11.883,4.445A8.167,8.167,0,0,0,8.844,7.574c-1.172,2.551,2.391,5.336,2.543,5.453a.2.2,0,0,0,.121.039.191.191,0,0,0,.125-.047.2.2,0,0,0,.051-.242,11.25,11.25,0,0,1-1.246-4.289c.016-.621.887-1.324,1.8-2.07A10.4,10.4,0,0,0,14.6,4.055,3.8,3.8,0,0,0,14.449.082a.206.206,0,0,0-.242-.066A.2.2,0,0,0,14.1.238a4.219,4.219,0,0,1-.473,2.645A5.718,5.718,0,0,1,11.883,4.445Zm0,0" fill="#dadada"/><path d="M16.555,5.324a.189.189,0,0,0,.051-.25.2.2,0,0,0-.242-.09c-.187.07-4.613,1.777-4.613,3.84A3.944,3.944,0,0,0,12.8,11.543a2.037,2.037,0,0,1,.375.559,2.814,2.814,0,0,1-.332,1.563.2.2,0,0,0,.18.281.183.183,0,0,0,.109-.035c.078-.051,1.859-1.312,1.539-2.832a3.7,3.7,0,0,0-.652-1.371c-.387-.578-.668-.992-.242-1.762A15.1,15.1,0,0,1,16.555,5.324Zm0,0" fill="#dadada"/><path d="M5.035,13.981a.7.7,0,0,0,.105.652c.477.664,2.176,1.031,4.781,1.031.355,0,.727-.008,1.109-.02,4.164-.148,5.711-1.449,5.773-1.5a.194.194,0,0,0-.18-.336,28.8,28.8,0,0,1-6.106.539,13.445,13.445,0,0,1-3.477-.266,4.865,4.865,0,0,1,2.016-.723.2.2,0,0,0,.156-.215.2.2,0,0,0-.2-.176C8.41,12.965,5.355,13.016,5.035,13.981Zm0,0" fill="#dadada"/><path d="M18.977,12.644a4.107,4.107,0,0,0-1.711.449.2.2,0,0,0,.094.367c.02,0,1.832.016,2,1.055.148.895-1.715,2.344-2.445,2.824a.2.2,0,0,0-.074.242.2.2,0,0,0,.184.121.139.139,0,0,0,.039-.008c.176-.035,4.238-.93,3.809-3.3A1.83,1.83,0,0,0,18.977,12.644Zm0,0" fill="#dadada"/><path d="M16.188,17.051a.191.191,0,0,0-.078-.2l-.977-.684a.2.2,0,0,0-.164-.031,18.385,18.385,0,0,1-2.508.438,17.3,17.3,0,0,1-1.9.1,6.91,6.91,0,0,1-2.586-.3c-.02-.035-.016-.051-.012-.059a.507.507,0,0,1,.25-.191.2.2,0,0,0,.121-.242A.2.2,0,0,0,8.1,15.75c-.977.234-1.453.566-1.422.98.063.734,1.766,1.113,3.207,1.211.207.016.43.023.664.023a28.014,28.014,0,0,0,5.5-.758A.2.2,0,0,0,16.188,17.051Zm0,0" fill="#dadada"/><path d="M8.84,18.629a.2.2,0,0,0,.082-.223.194.194,0,0,0-.2-.137c-.129,0-1.281.055-1.359.785a.755.755,0,0,0,.184.6c.414.488,1.531.777,3.41.887.223.016.449.019.672.019a10.306,10.306,0,0,0,4.07-.777.2.2,0,0,0,.113-.168.2.2,0,0,0-.094-.18l-1.234-.75a.2.2,0,0,0-.141-.027c-.008,0-.789.164-1.969.324a6.238,6.238,0,0,1-.832.047,10.165,10.165,0,0,1-2.742-.32A.077.077,0,0,1,8.84,18.629Zm0,0" fill="#dadada"/><path d="M10.519,22.82c5.477,0,8.418-.976,8.984-1.59a.674.674,0,0,0,.2-.559.871.871,0,0,0-.375-.555.2.2,0,0,0-.258.035.2.2,0,0,0,0,.258c.035.043.055.117-.047.219-.226.211-2.512.855-6.312,1.047-.519.027-1.066.039-1.625.043-3.4,0-5.894-.469-6.223-.738a4.825,4.825,0,0,1,1.945-.637.2.2,0,0,0-.059-.387c-.027,0-.117.008-.223.016-1.543.094-3.332.3-3.426,1.1a.805.805,0,0,0,.215.652C3.738,22.2,4.938,22.82,10.519,22.82Zm0,0" fill="#dadada"/><path d="M20.578,21.4a.2.2,0,0,0-.226.043,6.522,6.522,0,0,1-3.309,1.375,31.807,31.807,0,0,1-5.289.289c-2.566,0-5.008-.1-5.031-.1a.193.193,0,0,0-.2.168.2.2,0,0,0,.148.219A29.2,29.2,0,0,0,12.754,24a28.3,28.3,0,0,0,4.852-.406c2.879-.5,3.078-1.93,3.086-1.988A.194.194,0,0,0,20.578,21.4Zm0,0" fill="#dadada"/></g></svg>