<svg xmlns="http://www.w3.org/2000/svg" viewBox="0 0 1024 1024">
    <defs>
        <style>
            .cls-1 {fill:#b6b6b6;}
            .cls-2 {fill:#909090;}
            .cls-3 {fill:#dadada;}
        </style>
    </defs>

    <title>MEV Logo</title>

    <g id="Fill">
        <g id="O"><polygon class="cls-3" points="512.5 312.5 685.7 212.5 512.5 112.5 339.3 212.5 512.5 312.5"/></g>
        <g id="ORight"><polygon class="cls-2" points="512.5 412.5 512.5 312.5 685.7 212.5 685.7 312.5 512.5 412.5"/></g>
        <g id="OLeft"><polygon class="cls-1" points="512.5 412.5 512.5 312.5 339.3 212.5 339.3 312.5 512.5 412.5"/></g>
        <g id="V"><polygon class="cls-3" points="512.5 512.5 858.91 312.5 772.31 262.5 512.5 412.5 252.69 262.5 166.09 312.5 512.5 512.5"/></g>
        <g id="ETop"><polygon class="cls-3" points="599.1 612.5 858.91 462.5 815.61 437.5 599.1 562.5 599.1 612.5"/></g>
        <g id="EBottom"><polygon class="cls-3" points="599.1 762.5 858.91 612.5 815.61 587.5 599.1 712.5 599.1 762.5"/></g>
        <g id="E"><polygon class="cls-2" points="512.5 512.5 512.5 912.5 858.91 712.5 858.91 612.5 599.1 762.5 599.1 712.5 858.91 562.5 858.91 462.5 599.1 612.5 599.1 562.5 858.91 412.5 858.91 312.5 512.5 512.5"/></g>
        <g id="MLeft"><polygon class="cls-2" points="252.69 762.5 295.99 737.5 295.99 487.5 252.69 462.5 252.69 762.5"/></g>
        <g id="MRight"><polygon class="cls-2" points="382.6 837.5 425.9 812.5 425.9 562.5 382.6 537.5 382.6 837.5"/></g>
        <g id="M"><polygon class="cls-1" points="512.5 912.5 425.9 862.5 425.9 562.5 382.6 537.5 382.6 837.5 295.99 787.5 295.99 487.5 252.69 462.5 252.69 762.5 166.09 712.5 166.09 312.5 512.5 512.5 512.5 912.5"/></g>
    </g>
</svg>