<svg xmlns="http://www.w3.org/2000/svg" width="24" height="22.295" viewBox="0 0 24 22.295"><path d="M11.9.853A5.73,5.73,0,0,0,8.99,11.518l1.641-2.785a.154.154,0,0,0-.05-.2,2.35,2.35,0,1,1,2.635,0,.154.154,0,0,0-.05.2l1.641,2.785A5.73,5.73,0,0,0,11.9.853ZM5.729,11.689a5.729,5.729,0,1,0,5.727,5.582H8.231a.155.155,0,0,0-.152.156,2.377,2.377,0,0,1-2.35,2.341,2.351,2.351,0,1,1,.955-4.5.154.154,0,0,0,.2-.059l1.646-2.793a5.7,5.7,0,0,0-2.8-.728Zm15.442.761-1.637,2.788a.154.154,0,0,0,.05.2,2.35,2.35,0,1,1-2.635,0A.154.154,0,0,0,17,15.243l-1.646-2.782a5.729,5.729,0,1,0,5.819-.01Z" transform="translate(0 -0.852)" fill="#dadada"/></svg>