<svg xmlns="http://www.w3.org/2000/svg" viewBox="0 0 1024 1024"><title>MEV Outline Shape</title><g id="Outline"><path d="M859.41,412V312a1,1,0,0,0-.5-.87l-86.6-50a1,1,0,0,0-1,0L686.2,310.27V212a1,1,0,0,0-.5-.87l-173.2-100a1,1,0,0,0-1,0l-173.2,100a1,1,0,0,0-.5.87v98.27l-85.11-49.14a1,1,0,0,0-1,0l-86.6,50a1,1,0,0,0-.5.87V712a1,1,0,0,0,.5.87l86.6,50a1,1,0,0,0,1,0l41.8-24.14V787a1,1,0,0,0,.5.87l86.61,50a1,1,0,0,0,1,0l41.8-24.14V862a1,1,0,0,0,.5.87l86.6,50a1,1,0,0,0,1,0l346.41-200a1,1,0,0,0,.5-.87V612a1,1,0,0,0-.5-.87L817.11,587l41.8-24.13a1,1,0,0,0,.5-.87V462a1,1,0,0,0-.5-.87L817.11,437l41.8-24.13A1,1,0,0,0,859.41,412ZM513,410.27V312.58l171.2-98.85v97.69L522.93,404.54Zm-1-297.12L683.2,212,512,310.85,340.8,212ZM339.8,311.42V213.73L511,312.58v97.69l-9.36-5.41Zm-87.61-48.27L511.5,412.87a1,1,0,0,0,1,0L771.81,263.15,856.41,312,512,510.85,167.59,312Zm1,497.12V463.73l41.3,23.85V736.42Zm129.91,75V538.73l41.3,23.85V811.42ZM426.4,812V562a1,1,0,0,0-.5-.87l-43.3-25a1,1,0,0,0-1,0,1,1,0,0,0-.5.87V835.27l-84.61-48.85V487a1,1,0,0,0-.5-.87l-43.3-25a1,1,0,0,0-1,0,1,1,0,0,0-.5.87V760.27l-84.6-48.85V313.73L511,512.58V910.27l-84.6-48.85ZM815.11,588.15,856.41,612,599.6,760.27V712.58Zm0-150L856.41,462,599.6,610.27V562.58Zm-217,123a1,1,0,0,0-.5.87v50a1,1,0,0,0,.5.87,1,1,0,0,0,1,0L857.41,463.73v97.69L598.1,711.13a1,1,0,0,0-.5.87v50a1,1,0,0,0,.5.87,1,1,0,0,0,1,0L857.41,613.73v97.69L513,910.27V512.58L857.41,313.73v97.69Z"/></g></svg>