<svg xmlns="http://www.w3.org/2000/svg" width="24.12" height="24" viewBox="0 0 24.12 24"><path d="M14.25.18l.9.2.73.26.59.3.45.32.34.34.25.34.16.33.1.3.04.26.02.2-.01.13V8.5l-.05.63-.13.55-.21.46-.26.38-.3.31-.33.25-.35.19-.35.14-.33.1-.3.07-.26.04-.21.02H8.77l-.69.05-.59.14-.5.22-.41.27-.33.32-.27.35-.2.36-.15.37-.1.35-.07.32-.04.27-.02.21v3.06H3.17l-.21-.03-.28-.07-.32-.12-.35-.18-.36-.26-.36-.36-.35-.46-.32-.59-.28-.73-.21-.88L-.01,13.2l-.05-1.23L0,10.75.16,9.71.4,8.84l.32-.71.36-.57.4-.44.42-.33.42-.24.4-.16.36-.1.32-.05.24-.01H3.8l.06.01h8.16V5.41H6.18L6.17,2.66l-.02-.37.05-.34.11-.31.17-.28.25-.26L7.04.87l.38-.2L7.86.49,8.37.34,8.95.22l.64-.1L10.3.06l.77-.04L11.91,0l1.27.05ZM7.95,2.16l-.23.33-.08.41.08.41.23.34.33.22.41.09.41-.09.33-.22.23-.34.08-.41-.08-.41-.23-.33L9.1,1.94l-.41-.09-.41.09ZM21.04,6.11l.28.06.32.12.35.18.36.27.36.35.35.47.32.59.28.73.21.88.14,1.04.05,1.23L24,13.26l-.16,1.04-.24.86-.32.71-.36.57-.4.45-.42.33-.42.24-.4.16-.36.09-.32.05-.24.02-.16-.01H11.98v.82h5.84l.01,2.76.02.36-.05.34-.11.31-.17.29-.25.25-.31.24-.38.2-.44.17-.51.15-.58.13-.64.09-.71.07-.77.04-.84.01-1.27-.04-1.07-.14-.9-.2-.73-.25-.59-.3-.45-.33-.34-.34-.25-.34-.16-.33-.1-.3-.04-.25-.02-.2.01-.13V15.51l.05-.64.13-.54.21-.46.26-.38.3-.32.33-.24.35-.2.35-.14.33-.1.3-.06.26-.04.21-.02.13-.01h5.84l.69-.05.59-.14.5-.21.41-.28.33-.32.27-.35.2-.36.15-.36.1-.35.07-.32.04-.28.02-.21V6.07h2.09l.14.01ZM14.57,20.36l-.23.33-.08.41.08.41.23.33.33.23.41.08.41-.08.33-.23.23-.33.08-.41-.08-.41-.23-.33-.33-.23-.41-.08-.41.08Z" transform="translate(0.06)" fill="#dadada"/></svg>