<svg xmlns="http://www.w3.org/2000/svg" width="19.08" height="24" viewBox="0 0 19.08 24"><path d="M19.9,10.9l-.173-.3a3.8,3.8,0,0,0-2.179-3.735c.356-.094.724-.171.824-.618.612-.157.74-.44.8-.74.16-.107.7-.406.639-.921a.766.766,0,0,0,.382-.849c.322-.352.407-.642.27-.91a.682.682,0,0,0,.05-.982c.29-.525.034-1.089-.776-.994C19.413.372,18.711.479,18.6.481,18.481.329,18.32.2,17.827.262a.94.94,0,0,0-1.046-.1C16.343-.174,16.054.1,15.723.2c-.53-.171-.651.063-.912.158-.578-.12-.754.142-1.031.418L13.458.772A3.617,3.617,0,0,0,12,2.838,3.616,3.616,0,0,0,10.542.772l-.322.006C9.942.5,9.766.239,9.188.36,8.928.265,8.807.031,8.277.2A2.034,2.034,0,0,0,7.624,0h0a.687.687,0,0,0-.406.165.94.94,0,0,0-1.046.1C5.679.2,5.519.33,5.4.481c-.108,0-.811-.11-1.133.364-.81-.094-1.066.469-.776.994a.682.682,0,0,0,.05.982c-.137.268-.052.558.27.91a.766.766,0,0,0,.382.849c-.056.515.479.814.639.921.061.3.189.583.8.74.1.447.469.524.825.618a3.8,3.8,0,0,0-2.179,3.735l-.172.3a3.649,3.649,0,0,0-.665,5.517,10.213,10.213,0,0,0,.517,1.661A4.059,4.059,0,0,0,6.517,21.3a8.677,8.677,0,0,0,2.449,1.37A4.094,4.094,0,0,0,11.977,24h.046a4.094,4.094,0,0,0,3.011-1.331,8.676,8.676,0,0,0,2.449-1.37,4.059,4.059,0,0,0,2.561-3.226,10.21,10.21,0,0,0,.517-1.661A3.649,3.649,0,0,0,19.9,10.9Zm-1.039-.372c-.07.876-4.635-3.05-3.847-3.181A3.058,3.058,0,0,1,18.857,10.525Zm-2.015,4.365a2.772,2.772,0,0,1-3.7-1.068,2.656,2.656,0,0,1,.462-3.751,2.772,2.772,0,0,1,3.7,1.068A2.656,2.656,0,0,1,16.841,14.889ZM13.659,1.372a.679.679,0,0,0,.135.358,7.17,7.17,0,0,1,.788-.812c0,.154-.078.32.117.442a2.3,2.3,0,0,1,.726-.624c-.151.261-.026.34.055.449a2.653,2.653,0,0,1,.911-.576c-.121.147-.29.291-.111.461A2.668,2.668,0,0,1,17.364.651c-.132.147-.406.295-.24.443A4.544,4.544,0,0,1,18.158.839c-.182.15-.334.3-.185.412a2.267,2.267,0,0,1,1.237-.121l-.283.285a7.907,7.907,0,0,0,1.12.036,2.268,2.268,0,0,0-.437.855c.045.046.272.02.486,0-.219.462-.6.578-.689.776a.561.561,0,0,0,.523.006,3.481,3.481,0,0,1-.751.812c.066.047.182.075.455.043a4.2,4.2,0,0,1-.88.7c.061.071.272.068.468.073a4.437,4.437,0,0,1-1.1.667.655.655,0,0,0,.468.1,3.671,3.671,0,0,1-1.145.467.421.421,0,0,0,.332.194c-.447.247-1.087.134-1.268.261a.537.537,0,0,0,.314.273c-.72.042-2.688-.026-3.065-1.516a15.651,15.651,0,0,1,4.394-2.934,15.079,15.079,0,0,0-4.782,2.51c-1.6-.744-.5-2.62.283-3.365ZM12.046,6.744c1.133-.012,2.536.832,2.53,1.629-.005.7-.985,1.271-2.521,1.261-1.5-.018-2.517-.715-2.514-1.4,0-.56,1.228-1.526,2.505-1.494Zm-5.765-.6a.421.421,0,0,0,.332-.194,3.674,3.674,0,0,1-1.145-.467.655.655,0,0,0,.468-.1,4.436,4.436,0,0,1-1.1-.667c.2,0,.406,0,.468-.073a4.208,4.208,0,0,1-.88-.7c.274.033.389,0,.456-.043a3.483,3.483,0,0,1-.751-.812.561.561,0,0,0,.523-.006c-.089-.2-.47-.314-.689-.776.214.02.441.046.486,0a2.265,2.265,0,0,0-.437-.855,7.907,7.907,0,0,0,1.12-.036L4.854,1.13a2.266,2.266,0,0,1,1.237.121c.149-.116,0-.263-.185-.412a4.549,4.549,0,0,1,1.034.255C7.106.946,6.833.8,6.7.651a2.668,2.668,0,0,1,1.083.418C7.963.9,7.794.756,7.673.608a2.655,2.655,0,0,1,.911.576c.081-.108.207-.187.055-.449a2.3,2.3,0,0,1,.726.624c.194-.122.116-.289.117-.443a7.2,7.2,0,0,1,.788.812.678.678,0,0,0,.135-.358c.779.745,1.881,2.621.283,3.365a15.1,15.1,0,0,0-4.78-2.509A15.646,15.646,0,0,1,10.3,5.161c-.377,1.49-2.345,1.557-3.065,1.516A.538.538,0,0,0,7.55,6.4c-.181-.126-.821-.013-1.268-.261ZM9.1,7.277c.788.13-3.777,4.057-3.847,3.181A3.058,3.058,0,0,1,9.1,7.277ZM4.252,16.033a2.884,2.884,0,0,1,.59-4.61C6.082,11.1,5.261,16.475,4.252,16.033Zm4.266,4.6c-.626.372-2.145.219-3.225-1.309-.728-1.282-.635-2.587-.123-2.971.765-.459,1.946.161,2.856,1.2C8.818,18.493,9.179,20.145,8.518,20.632ZM7.276,15.024a2.656,2.656,0,0,1-.462-3.751,2.772,2.772,0,0,1,3.7-1.068,2.656,2.656,0,0,1,.462,3.751A2.772,2.772,0,0,1,7.276,15.024Zm4.795,8.228c-1.376.058-2.726-1.111-2.708-1.516-.021-.594,1.676-1.058,2.782-1.031,1.113-.048,2.607.353,2.61.885.018.517-1.355,1.684-2.684,1.661Zm2.758-5.858a2.65,2.65,0,0,1-2.756,2.53,2.656,2.656,0,0,1-2.785-2.5v-.027a2.65,2.65,0,0,1,2.756-2.53,2.656,2.656,0,0,1,2.785,2.5q0,.013,0,.027Zm3.855,2c-1.186,1.621-2.792,1.684-3.39,1.233-.625-.581-.148-2.385.709-3.375h0c.981-1.091,2.03-1.8,2.761-1.247A3.066,3.066,0,0,1,18.685,19.4Zm1.072-3.43c-1.009.441-1.83-4.937-.59-4.61A2.884,2.884,0,0,1,19.757,15.967Zm-.026-8.328h.3v-.53h.3c.15,0,.205.062.226.205a1.483,1.483,0,0,0,.048.325h.3a.74.74,0,0,1-.057-.321c-.01-.137-.051-.28-.2-.318V7a.335.335,0,0,0,.215-.341.373.373,0,0,0-.4-.374h-.732V7.639Zm.3-1.125h.327c.133,0,.205.057.205.188s-.072.194-.205.194H20.03V6.513ZM19,6.976a1.27,1.27,0,1,0,1.27-1.27A1.269,1.269,0,0,0,19,6.976Zm2.327,0a1.058,1.058,0,1,1-1.058-1.058,1.058,1.058,0,0,1,1.058,1.058Z" transform="translate(-2.46 0)" fill="#dadada"/></svg>