<svg xmlns="http://www.w3.org/2000/svg" width="24" height="21.375" viewBox="0 0 24 21.375"><path d="M14.23,12a2.235,2.235,0,1,1-2.236-2.236A2.236,2.236,0,0,1,14.23,12Zm2.648-10.69c-1.346,0-3.107.96-4.888,2.622-1.78-1.653-3.542-2.6-4.887-2.6A2.2,2.2,0,0,0,6,1.612c-1.375.793-1.683,3.264-.973,6.365C1.98,8.917,0,10.42,0,12s1.99,3.1,5.043,4.03c-.7,3.113-.39,5.588.988,6.38a2.147,2.147,0,0,0,1.1.275c1.345,0,3.107-.96,4.888-2.624,1.78,1.654,3.542,2.6,4.887,2.6a2.2,2.2,0,0,0,1.106-.275c1.374-.792,1.683-3.263.973-6.365C22.02,15.1,24,13.59,24,12s-1.99-3.1-5.043-4.032c.7-3.11.39-5.587-.988-6.38a2.167,2.167,0,0,0-1.092-.278Zm0,1.09V2.41a1.137,1.137,0,0,1,.558.127c.666.382.955,1.835.73,3.7-.054.46-.142.945-.25,1.44A23.476,23.476,0,0,0,14.8,7.147,23.892,23.892,0,0,0,12.769,4.7c1.592-1.48,3.087-2.292,4.1-2.3Zm-9.77.02c1.012,0,2.514.808,4.11,2.28a22.994,22.994,0,0,0-2.02,2.442,22.73,22.73,0,0,0-3.113.538c-.112-.49-.2-.964-.254-1.42C5.6,4.4,5.88,2.944,6.54,2.557A1.465,1.465,0,0,1,7.1,2.425Zm4.882,3.05a19.882,19.882,0,0,1,1.36,1.564C12.905,7.018,12.455,7,12,7s-.915.01-1.36.034a19,19,0,0,1,1.345-1.565ZM12,8.1c.74,0,1.477.034,2.2.093q.609.873,1.183,1.86.558.96,1.018,1.946c-.308.655-.646,1.31-1.013,1.95-.38.66-.773,1.288-1.18,1.87-.728.063-1.466.1-2.21.1s-1.477-.035-2.2-.093c-.406-.582-.8-1.2-1.183-1.86Q8.057,13,7.6,12.018c.3-.657.646-1.313,1.013-1.954.38-.66.773-1.286,1.18-1.868.728-.064,1.466-.1,2.21-.1Zm-3.635.254c-.24.377-.48.763-.7,1.16s-.435.782-.635,1.174c-.265-.656-.49-1.31-.676-1.947.64-.15,1.315-.283,2.015-.386Zm7.26,0c.695.1,1.365.23,2.006.387-.18.632-.405,1.282-.66,1.933-.2-.39-.41-.783-.64-1.174s-.465-.774-.7-1.146Zm3.063.675c.484.15.944.317,1.375.5,1.732.74,2.852,1.708,2.852,2.476s-1.125,1.74-2.857,2.475c-.42.18-.88.342-1.355.493a23.966,23.966,0,0,0-1.1-2.98,23.283,23.283,0,0,0,1.085-2.964Zm-13.4,0a23.328,23.328,0,0,0,1.1,2.98,23.142,23.142,0,0,0-1.086,2.964,14.2,14.2,0,0,1-1.37-.5C2.2,13.74,1.085,12.771,1.085,12S2.2,10.261,3.937,9.527C4.357,9.347,4.817,9.185,5.293,9.033Zm11.678,4.28c.265.657.49,1.312.676,1.948-.64.157-1.316.29-2.016.39.24-.375.48-.762.705-1.158s.435-.788.636-1.18Zm-9.945.02c.2.392.41.783.64,1.175s.465.772.705,1.143c-.7-.1-1.365-.23-2.006-.386.18-.63.406-1.282.66-1.933ZM17.92,16.32a13.814,13.814,0,0,1,.254,1.423c.23,1.868-.054,3.32-.714,3.708a1.072,1.072,0,0,1-.563.128c-1.012,0-2.514-.807-4.11-2.28a23.065,23.065,0,0,0,2.02-2.44,22.876,22.876,0,0,0,3.113-.54Zm-11.83.01a23.815,23.815,0,0,0,3.107.532,23.768,23.768,0,0,0,2.035,2.446c-1.6,1.483-3.092,2.3-4.11,2.3a1.185,1.185,0,0,1-.553-.132c-.666-.38-.955-1.834-.73-3.7.054-.46.142-.944.25-1.438Zm4.56.64c.44.02.89.034,1.345.034s.915-.01,1.36-.034a19.165,19.165,0,0,1-1.345,1.565A20.272,20.272,0,0,1,10.65,16.97Z" transform="translate(0 -1.314)" fill="#dadada"/></svg>