<svg xmlns="http://www.w3.org/2000/svg" width="24" height="14.4" viewBox="0 0 24 14.4"><path d="M12,4.8q-4.8,0-6,4.8,1.8-2.4,4.2-1.8a5.113,5.113,0,0,1,2.288,1.624A6.927,6.927,0,0,0,18,12q4.8,0,6-4.8Q22.2,9.6,19.8,9a5.113,5.113,0,0,1-2.288-1.624A6.924,6.924,0,0,0,12,4.8ZM6,12q-4.8,0-6,4.8Q1.8,14.4,4.2,15a5.113,5.113,0,0,1,2.288,1.624A6.927,6.927,0,0,0,12,19.2q4.8,0,6-4.8-1.8,2.4-4.2,1.8a5.113,5.113,0,0,1-2.288-1.624A6.924,6.924,0,0,0,6,12Z" transform="translate(-0.001 -4.8)" fill="#dadada"/></svg>