<svg xmlns="http://www.w3.org/2000/svg" width="24" height="23.091" viewBox="0 0 24 23.091"><path d="M17.61.455a3.41,3.41,0,1,0,3.41,3.41A3.41,3.41,0,0,0,17.61.455ZM12.92.8A11.214,11.214,0,0,0,3.148,6.451q.13-.007.26-.007a4.92,4.92,0,0,1,2.585.737A8.316,8.316,0,0,1,12.688,3.6,4.944,4.944,0,0,1,13.723.834Q13.322.8,12.92.8Zm9.226,4.994A4.915,4.915,0,0,1,20.228,8.04a8.36,8.36,0,0,1-.273,8.3,4.89,4.89,0,0,1,1.632,2.54A11.156,11.156,0,0,0,22.146,5.794ZM3.41,7.932a3.409,3.409,0,1,0,3.41,3.409A3.41,3.41,0,0,0,3.41,7.932ZM5.437,15.8a4.908,4.908,0,0,1-2.915.358,11.1,11.1,0,0,0,7.991,6.7,11.234,11.234,0,0,0,2.422.249,4.879,4.879,0,0,1-1-2.85q-.421-.047-.836-.136A8.3,8.3,0,0,1,5.437,15.8Zm11.4.928a3.41,3.41,0,1,0,3.41,3.41A3.41,3.41,0,0,0,16.842,16.726Z" transform="translate(0 -0.455)" fill="#dadada"/></svg>